<svg width="517" height="518" viewBox="0 0 517 518" fill="none" xmlns="http://www.w3.org/2000/svg">
<path d="M460.456 307.987L115.599 409.122L200.443 59.8999L460.456 307.987Z" stroke="#AE80E8" stroke-width="0.511649"/>
<path d="M205.738 64.7623V55H196V64.7623H205.738Z" fill="#6E5193"/>
<path d="M466.738 311.762V302H457V311.762H466.738Z" fill="#6E5193"/>
<circle cx="258.832" cy="259" r="207.744" stroke="#7E44F3" stroke-width="0.511649"/>
<rect x="112.25" y="113.251" width="293.5" height="293.5" stroke="#7E44F3" stroke-width="0.5"/>
<path d="M199.783 298.967V304H181.952V281.351H199.46V286.384H187.956V290.087H196.835V295.048H187.956V298.967H199.783ZM200.265 295.983C200.265 290.914 203.967 287.535 209.036 287.535C213.854 287.535 216.55 290.662 216.946 294.509L212.164 294.833C211.769 292.855 210.798 291.921 209.108 291.921C207.347 291.921 206.124 293.107 206.124 295.983C206.124 298.859 207.347 300.045 209.108 300.045C210.798 300.045 211.769 299.075 212.164 297.097L216.946 297.457C216.55 301.34 213.854 304.431 209.036 304.431C203.967 304.431 200.265 301.088 200.265 295.983ZM223.267 295.983C223.267 298.392 224.13 300.045 226.179 300.045C228.192 300.045 229.091 298.392 229.091 295.983C229.091 293.574 228.192 291.921 226.179 291.921C224.13 291.921 223.267 293.574 223.267 295.983ZM234.951 295.983C234.951 300.98 231.392 304.431 226.179 304.431C220.93 304.431 217.407 300.98 217.407 295.983C217.407 291.022 220.93 287.535 226.179 287.535C231.392 287.535 234.951 291.022 234.951 295.983ZM235.034 298.787L240.103 298.715C240.319 300.045 241.398 300.8 243.159 300.8C244.453 300.8 245.137 300.333 245.137 299.686C245.137 299.075 244.777 298.643 243.663 298.464L241.29 298.104C237.407 297.493 235.358 296.235 235.358 292.963C235.358 289.8 238.126 287.535 242.62 287.535C247.258 287.535 249.99 289.584 250.313 292.927L245.532 293.071C245.316 291.921 244.31 291.202 242.512 291.202C241.398 291.202 240.751 291.633 240.751 292.352C240.751 292.891 241.182 293.179 241.721 293.251L244.849 293.79C248.444 294.365 250.529 295.983 250.529 299.111C250.529 302.49 247.653 304.431 243.087 304.431C238.665 304.431 235.358 302.67 235.034 298.787ZM259.806 309.752H254.09L256.391 304.216L249.848 287.966H255.96L259.519 297.349H259.663L263.294 287.966H269.01L259.806 309.752ZM268.301 298.787L273.37 298.715C273.586 300.045 274.665 300.8 276.426 300.8C277.72 300.8 278.403 300.333 278.403 299.686C278.403 299.075 278.044 298.643 276.929 298.464L274.557 298.104C270.674 297.493 268.625 296.235 268.625 292.963C268.625 289.8 271.393 287.535 275.887 287.535C280.525 287.535 283.257 289.584 283.58 292.927L278.799 293.071C278.583 291.921 277.577 291.202 275.779 291.202C274.665 291.202 274.017 291.633 274.017 292.352C274.017 292.891 274.449 293.179 274.988 293.251L278.116 293.79C281.711 294.365 283.796 295.983 283.796 299.111C283.796 302.49 280.92 304.431 276.354 304.431C271.932 304.431 268.625 302.67 268.301 298.787ZM285.519 299.542V291.992H283.362V288.397L284.549 288.218C286.167 287.966 286.67 287.103 287.065 285.629L287.605 283.544H291.272V287.966H295.442V291.992H291.272V297.852C291.272 299.219 291.919 299.758 293.105 299.758C293.824 299.758 294.615 299.614 295.586 299.219V302.993C294.363 303.892 292.961 304.431 290.768 304.431C288.072 304.431 285.519 303.317 285.519 299.542ZM308.039 298.284L312.712 298.715C311.886 302.382 308.938 304.431 304.695 304.431C299.555 304.431 295.888 301.34 295.888 296.235C295.888 291.166 299.626 287.535 304.624 287.535C309.98 287.535 312.82 291.202 312.82 295.552V297.169H301.568C301.712 299.147 303.15 300.081 304.911 300.081C306.493 300.081 307.5 299.542 308.039 298.284ZM301.64 294.365H307.284C307.212 292.927 306.277 291.705 304.552 291.705C302.682 291.705 301.855 292.855 301.64 294.365ZM329.922 290.698C330.785 288.901 332.69 287.535 335.386 287.535C339.808 287.535 341.102 290.59 341.102 293.934V304H335.278V295.48C335.278 293.287 334.883 292.136 333.121 292.136C331.18 292.136 330.533 293.718 330.533 296.127V304H324.709V295.48C324.709 293.287 324.278 292.136 322.516 292.136C320.611 292.136 319.928 293.718 319.928 296.127V304H314.104V287.966H319.928V290.375C320.79 288.613 322.516 287.535 324.925 287.535C327.765 287.535 329.239 288.829 329.922 290.698Z" fill="white"/>
<path opacity="0.37" d="M405.543 452.086C431.248 452.086 452.086 431.248 452.086 405.543C452.086 379.838 431.248 359 405.543 359C379.838 359 359 379.838 359 405.543C359 431.248 379.838 452.086 405.543 452.086Z" fill="url(#paint0_linear_107_6403)"/>
<path d="M435.164 389.983H412.938V392.9H435.164V389.983Z" fill="white"/>
<path d="M422.425 397.055V422.838C420.724 421.139 418.2 420.066 415.378 420.066C410.259 420.066 406.098 423.609 406.098 427.984C406.098 432.359 410.251 435.902 415.378 435.902C420.506 435.902 424.659 432.359 424.659 427.984V397.062H422.433L422.425 397.055Z" fill="white"/>
<path d="M424.65 392.925V382.325L422.424 381.231V392.925H424.65Z" fill="white"/>
<path d="M412.297 379.775H389.001V383.086H412.297V379.775Z" fill="white"/>
<path d="M398.489 386.848V412.631C396.788 410.932 394.264 409.858 391.442 409.858C386.322 409.858 382.162 413.401 382.162 417.776C382.162 422.151 386.314 425.694 391.442 425.694C396.57 425.694 400.722 422.151 400.722 417.776V386.855H398.497L398.489 386.848Z" fill="white"/>
<path d="M400.714 382.718V372.117L398.488 371.023V382.718H400.714Z" fill="white"/>
<path opacity="0.37" d="M119.543 453.086C145.248 453.086 166.086 432.248 166.086 406.543C166.086 380.838 145.248 360 119.543 360C93.8381 360 73 380.838 73 406.543C73 432.248 93.8381 453.086 119.543 453.086Z" fill="url(#paint1_linear_107_6403)"/>
<path d="M153.56 400.09L114.855 377.743C113.084 376.722 110.875 377.999 110.875 380.041V424.735C110.875 426.777 113.084 428.054 114.855 427.033L153.56 404.686C155.332 403.666 155.332 401.11 153.56 400.09Z" fill="white"/>
<path d="M137.069 409.7L97.8443 387.051C96.0724 386.031 93.864 387.308 93.864 389.35V434.641C93.864 436.683 96.0724 437.96 97.8443 436.939L137.069 414.29C138.841 413.27 138.841 410.715 137.069 409.694V409.7Z" fill="url(#paint2_linear_107_6403)"/>
<path fill-rule="evenodd" clip-rule="evenodd" d="M120.211 399.968L116.853 407.569C115.987 406.125 114.677 404.918 113.008 404.199C108.764 402.363 103.841 404.314 102.004 408.558C100.168 412.801 102.12 417.725 106.363 419.561C110.543 421.371 115.383 419.497 117.277 415.375H117.283L123.299 401.759L120.204 399.968H120.211Z" fill="white"/>
<path fill-rule="evenodd" clip-rule="evenodd" d="M126.951 384.73L120.21 399.97L123.311 401.755L130.046 386.515L126.951 384.73Z" fill="url(#paint3_linear_107_6403)"/>
<path opacity="0.37" d="M111.543 158.086C137.248 158.086 158.086 137.248 158.086 111.543C158.086 85.8381 137.248 65 111.543 65C85.8381 65 65 85.8381 65 111.543C65 137.248 85.8381 158.086 111.543 158.086Z" fill="url(#paint4_linear_107_6403)"/>
<path d="M145.252 90.6758H77.8252C77.1161 90.6758 76.5413 91.2506 76.5413 91.9597V133.046C76.5413 133.755 77.1161 134.33 77.8252 134.33H145.252C145.961 134.33 146.536 133.755 146.536 133.046V91.9597C146.536 91.2506 145.961 90.6758 145.252 90.6758Z" fill="white"/>
<path d="M140.893 93.6882H80.3035V131.321H140.893V93.6882Z" fill="url(#paint5_linear_107_6403)"/>
<path d="M143.903 114.004C144.733 114.004 145.405 113.332 145.405 112.502C145.405 111.673 144.733 111 143.903 111C143.073 111 142.401 111.673 142.401 112.502C142.401 113.332 143.073 114.004 143.903 114.004Z" fill="#8249F5"/>
<path fill-rule="evenodd" clip-rule="evenodd" d="M101.572 116.862L90.4464 124.701C90.4464 124.085 90.2731 123.462 89.8943 122.916C88.925 121.536 87.0247 121.202 85.6445 122.172C84.2642 123.141 83.9304 125.041 84.8998 126.421C85.8563 127.782 87.718 128.123 89.0919 127.205L102.323 117.909L101.572 116.85V116.862Z" fill="white"/>
<path fill-rule="evenodd" clip-rule="evenodd" d="M130.737 101.461L131.719 103.066L113.744 115.771L114.489 116.83L136.483 101.269L130.737 101.461Z" fill="white"/>
<path fill-rule="evenodd" clip-rule="evenodd" d="M111.323 110.004L90.4464 124.705C90.4464 124.089 90.2731 123.466 89.8943 122.921C88.925 121.54 87.0247 121.206 85.6445 122.176C84.2642 123.145 83.9304 125.045 84.8998 126.426C85.8563 127.787 87.718 128.127 89.0919 127.209L112.075 111.057L111.323 109.998V110.004Z" fill="white"/>
<path fill-rule="evenodd" clip-rule="evenodd" d="M115.555 116.092L111.286 110.006L110.226 110.757L114.508 116.83L115.555 116.092Z" fill="white"/>
<path fill-rule="evenodd" clip-rule="evenodd" d="M131.585 107.615V127.554H136.381V104.225L131.585 107.615Z" fill="white"/>
<path fill-rule="evenodd" clip-rule="evenodd" d="M124.85 112.379V127.556H129.646V108.99L124.85 112.379Z" fill="white"/>
<path fill-rule="evenodd" clip-rule="evenodd" d="M118.115 117.148V127.554H122.911V113.752L118.115 117.148Z" fill="white"/>
<path fill-rule="evenodd" clip-rule="evenodd" d="M113.948 120.049L111.38 116.389V127.553H116.176V118.521L113.948 120.049Z" fill="white"/>
<path fill-rule="evenodd" clip-rule="evenodd" d="M104.648 119.164V127.555H109.444V115.794L104.648 119.164Z" fill="white"/>
<path fill-rule="evenodd" clip-rule="evenodd" d="M97.9106 123.897V127.556H102.706V120.527L97.9106 123.897Z" fill="white"/>
<path fill-rule="evenodd" clip-rule="evenodd" d="M92.7126 127.555H95.9739V125.257L92.7126 127.555Z" fill="white"/>
<g clip-path="url(#clip0_107_6403)">
<path d="M200.49 260.782H190.2V233.173H200.49V260.782Z" fill="white"/>
<path d="M379.952 237.326C375.142 234.483 369.964 233.043 364.568 233.043C359.171 233.043 354.692 234.597 351.371 237.659C348.038 240.733 346.349 244.827 346.349 249.83C346.349 254.834 347.84 258.917 350.78 262.006C353.729 265.101 357.658 266.672 362.459 266.672C365.513 266.672 368.219 265.885 370.514 264.331V265.913H380.192V237.468L379.954 237.326H379.952ZM370.512 242.504V256.373C368.81 257.645 366.792 258.29 364.512 258.29C362.027 258.29 359.968 257.492 358.395 255.919C356.822 254.346 356.024 252.306 356.024 249.856C356.024 247.406 356.837 245.285 358.442 243.748C360.052 242.205 362.203 241.425 364.836 241.425C366.814 241.425 368.72 241.788 370.512 242.506V242.504Z" fill="white"/>
<path d="M139.038 265.987H127.228V218.467C131.191 217.829 137.372 217.27 142.603 217.27C154.254 217.27 162.576 222.699 162.576 234.756C162.576 246.813 153.145 251.763 143.237 251.763C141.81 251.763 139.987 251.684 139.038 251.604V265.987ZM139.038 241.464C139.592 241.544 141.258 241.623 142.603 241.623C147.437 241.623 150.686 239.626 150.686 234.756C150.686 229.886 146.882 227.89 142.603 227.89C141.651 227.89 139.987 227.969 139.038 228.128V241.462V241.464Z" fill="white"/>
<path d="M176.208 265.986H166.111V236.112C169.665 234.249 174.501 233.247 179.195 233.247C181.968 233.247 183.747 233.462 186.307 234.178V243.993C184.173 243.063 181.899 242.775 179.623 242.775C178.557 242.775 177.418 242.919 176.21 243.205V265.986H176.208Z" fill="white"/>
<path d="M284.473 265.986H274.376V236.112C277.931 234.249 282.767 233.247 287.461 233.247C290.233 233.247 292.013 233.462 294.572 234.178V243.993C292.438 243.063 290.164 242.775 287.888 242.775C286.822 242.775 285.683 242.919 284.475 243.205V265.986H284.473Z" fill="white"/>
<path d="M253.849 233.029C263.449 233.029 270.845 239.836 270.845 249.864C270.845 259.892 263.449 266.699 253.849 266.699C244.248 266.699 236.924 259.892 236.924 249.864C236.924 239.836 244.319 233.029 253.849 233.029ZM253.849 241.77C249.937 241.77 247.094 244.779 247.094 249.866C247.094 254.954 249.937 257.962 253.849 257.962C257.76 257.962 260.675 254.954 260.675 249.866C260.675 244.779 257.831 241.77 253.849 241.77Z" fill="white"/>
<path d="M329.114 265.054C325.131 266.129 319.799 266.702 315.176 266.702C304.084 266.702 296.83 260.829 296.83 249.938C296.83 239.981 303.23 233.031 313.398 233.031C315.533 233.031 317.665 233.316 319.016 233.89V217.27H329.114V265.054ZM319.016 242.846C317.736 242.201 316.171 241.915 314.323 241.915C309.844 241.915 307.069 244.78 307.069 249.582C307.069 255.026 310.198 258.035 315.53 258.035C316.313 258.035 317.806 257.964 319.014 257.749V242.848L319.016 242.846Z" fill="white"/>
<path d="M342.739 265.992H332.642V233.25H342.739V265.99V265.992Z" fill="white"/>
<path d="M342.739 227.37H332.642V217.273H342.739V227.37Z" fill="white"/>
<path d="M200.342 227.367H190.245V217.27H200.342V227.367Z" fill="white"/>
<path d="M393.826 265.987H383.729V217.27H393.826V265.987Z" fill="white"/>
<path opacity="0.98" d="M231.039 234.241C230.798 234.065 229.62 233.164 227.808 233.173C227.174 233.167 225.831 233.296 224.567 234.25C224.062 234.632 223.467 235.228 223.046 236.008C222.962 236.163 222.887 236.32 222.818 236.483L217.178 249.619V244.007C217.178 241.016 214.754 238.591 211.762 238.591C209.519 238.591 207.593 239.956 206.77 241.901L199.914 257.87C198.921 256.651 197.408 255.873 195.714 255.873C192.722 255.873 190.298 258.297 190.298 261.289C190.298 264.281 192.722 266.705 195.714 266.705C197.977 266.705 199.918 265.315 200.726 263.342L206.346 250.255V255.871C206.346 258.863 208.771 261.287 211.762 261.287C214.028 261.287 215.966 259.896 216.777 257.921L222.395 244.837V261.285C222.401 263.398 223.564 265.031 224.944 265.88C225.84 266.432 226.775 266.688 227.811 266.701C228.793 266.705 230.317 266.417 231.613 265.143C232.754 264.021 233.227 262.592 233.227 261.285V238.587C233.212 235.817 231.303 234.43 231.041 234.239L231.039 234.241Z" fill="url(#paint6_linear_107_6403)"/>
</g>
<path opacity="0.37" d="M409.543 158.086C435.248 158.086 456.086 137.248 456.086 111.543C456.086 85.8381 435.248 65 409.543 65C383.838 65 363 85.8381 363 111.543C363 137.248 383.838 158.086 409.543 158.086Z" fill="url(#paint7_linear_107_6403)"/>
<path d="M399.901 82.3885C402.263 77.7471 405.217 74.9866 408.42 74.9866C416.194 74.9866 422.498 91.235 422.498 111.277C422.498 131.32 416.194 147.568 408.42 147.568C401.711 147.568 396.1 135.473 394.688 119.283" stroke="white" stroke-width="1.92593" stroke-miterlimit="10" stroke-linecap="round"/>
<path fill-rule="evenodd" clip-rule="evenodd" d="M394.699 119.22V119.291C394.699 119.291 394.743 119.278 394.769 119.272C396.849 120.722 399.051 122.128 401.382 123.477C402.832 124.311 404.277 125.094 405.721 125.826C410.729 128.375 415.633 130.294 420.108 131.52C421.071 127.836 421.771 123.669 422.162 119.195L422.226 119.169C422.226 119.169 422.188 119.162 422.169 119.156C422.387 116.62 422.502 113.988 422.502 111.279C422.502 109.603 422.458 107.96 422.368 106.349C422.072 100.738 421.283 95.5314 420.108 91.0439C416.436 92.0518 412.475 93.5284 408.411 95.4286L408.36 95.3837C408.36 95.3837 408.36 95.4286 408.36 95.4543C406.062 96.5328 403.731 97.7397 401.394 99.0879C399.943 99.9225 398.544 100.789 397.189 101.669C392.477 104.731 388.369 108.018 385.062 111.279C387.772 113.956 391.026 116.646 394.711 119.22H394.699Z" fill="white"/>
<path fill-rule="evenodd" clip-rule="evenodd" d="M441.699 131.464C441.841 131.496 441.866 131.49 441.699 131.464V131.464Z" fill="white"/>
<path d="M387.663 133.105C382.457 133.381 378.592 132.2 376.994 129.426C373.11 122.692 384.023 109.114 401.382 99.0932C418.741 89.0719 435.959 86.4077 439.85 93.1356C443.201 98.9455 435.536 109.853 422.221 119.168" stroke="white" stroke-width="1.92593" stroke-miterlimit="10" stroke-linecap="round"/>
<path d="M437.701 118.345C440.539 122.716 441.45 126.652 439.852 129.425C435.968 136.159 418.743 133.489 401.384 123.468C384.025 113.446 373.105 99.8622 376.996 93.1343C380.347 87.3244 393.629 88.512 408.356 95.3812" stroke="white" stroke-width="1.92593" stroke-miterlimit="10" stroke-linecap="round"/>
<path fill-rule="evenodd" clip-rule="evenodd" d="M415.2 108.72C414.333 107.275 413.023 106.068 411.354 105.349C407.111 103.513 402.187 105.465 400.351 109.708C398.515 113.952 400.466 118.876 404.71 120.712C408.889 122.522 413.729 120.647 415.623 116.526H415.63L421.202 103.642C420.997 101.279 420.708 98.9936 420.335 96.8237L415.193 108.713L415.2 108.72Z" fill="url(#paint8_linear_107_6403)"/>
<defs>
<linearGradient id="paint0_linear_107_6403" x1="359" y1="405.543" x2="452.086" y2="405.543" gradientUnits="userSpaceOnUse">
<stop offset="0.21" stop-color="#9780FF"/>
<stop offset="1" stop-color="#6BD3D3"/>
</linearGradient>
<linearGradient id="paint1_linear_107_6403" x1="73" y1="406.543" x2="166.086" y2="406.543" gradientUnits="userSpaceOnUse">
<stop offset="0.21" stop-color="#9780FF"/>
<stop offset="1" stop-color="#6BD3D3"/>
</linearGradient>
<linearGradient id="paint2_linear_107_6403" x1="93.864" y1="411.999" x2="138.398" y2="411.999" gradientUnits="userSpaceOnUse">
<stop offset="0.21" stop-color="#9780FF"/>
<stop offset="1" stop-color="#6BD3D3"/>
</linearGradient>
<linearGradient id="paint3_linear_107_6403" x1="120.21" y1="393.243" x2="130.046" y2="393.243" gradientUnits="userSpaceOnUse">
<stop offset="0.21" stop-color="#9780FF"/>
<stop offset="1" stop-color="#6BD3D3"/>
</linearGradient>
<linearGradient id="paint4_linear_107_6403" x1="65" y1="111.543" x2="158.086" y2="111.543" gradientUnits="userSpaceOnUse">
<stop offset="0.21" stop-color="#9780FF"/>
<stop offset="1" stop-color="#6BD3D3"/>
</linearGradient>
<linearGradient id="paint5_linear_107_6403" x1="80.3035" y1="112.505" x2="140.893" y2="112.505" gradientUnits="userSpaceOnUse">
<stop offset="0.21" stop-color="#9780FF"/>
<stop offset="1" stop-color="#6BD3D3"/>
</linearGradient>
<linearGradient id="paint6_linear_107_6403" x1="228.311" y1="232.623" x2="205.04" y2="272.927" gradientUnits="userSpaceOnUse">
<stop offset="0.21" stop-color="#9980FF"/>
<stop offset="1" stop-color="#6BD5D5"/>
</linearGradient>
<linearGradient id="paint7_linear_107_6403" x1="363" y1="111.543" x2="456.086" y2="111.543" gradientUnits="userSpaceOnUse">
<stop offset="0.21" stop-color="#9780FF"/>
<stop offset="1" stop-color="#6BD3D3"/>
</linearGradient>
<linearGradient id="paint8_linear_107_6403" x1="399.664" y1="109.111" x2="421.208" y2="109.111" gradientUnits="userSpaceOnUse">
<stop offset="0.21" stop-color="#9780FF"/>
<stop offset="1" stop-color="#6BD3D3"/>
</linearGradient>
<clipPath id="clip0_107_6403">
<rect width="266.598" height="49.4321" fill="white" transform="translate(127.227 217.271)"/>
</clipPath>
</defs>
</svg>
