<svg width="1280" height="100" viewBox="0 0 1280 100" fill="none" xmlns="http://www.w3.org/2000/svg">
<g id="Navigation Click">
<rect width="1280" height="100" fill="white"/>
<g id="Group 118">
<g id="USE" clip-path="url(#clip0_107_7080)">
<path id="Vector" d="M213.049 46.9384C209.946 45.104 206.606 44.1749 203.124 44.1749C199.642 44.1749 196.753 45.1774 194.61 47.1534C192.46 49.1362 191.37 51.7777 191.37 55.0057C191.37 58.2337 192.332 60.8683 194.229 62.8608C196.132 64.8575 198.666 65.8711 201.764 65.8711C203.734 65.8711 205.48 65.3636 206.961 64.3611V65.3817H213.205V47.0299L213.051 46.9384H213.049ZM206.96 50.2788V59.2265C205.861 60.0474 204.559 60.4634 203.088 60.4634C201.485 60.4634 200.157 59.9489 199.142 58.9339C198.127 57.919 197.612 56.6031 197.612 55.0223C197.612 53.4416 198.137 52.073 199.172 51.0816C200.211 50.086 201.599 49.5827 203.297 49.5827C204.573 49.5827 205.803 49.817 206.96 50.2801V50.2788Z" fill="#2D2246"/>
<path id="Vector_2" d="M57.6194 65.4302H50V34.7723C52.5569 34.3605 56.5448 34 59.9198 34C67.4366 34 72.8055 37.5026 72.8055 45.2814C72.8055 53.0603 66.7211 56.2536 60.3288 56.2536C59.4081 56.2536 58.2323 56.2023 57.6194 56.151V65.4302ZM57.6194 49.609C57.9771 49.6603 59.0518 49.7116 59.9198 49.7116C63.0382 49.7116 65.1348 48.4235 65.1348 45.2814C65.1348 42.1394 62.6805 40.8512 59.9198 40.8512C59.3055 40.8512 58.2323 40.9025 57.6194 41.0051V49.6076V49.609Z" fill="#2D2246"/>
<path id="Vector_3" d="M81.5993 65.4301H75.0851V46.1563C77.3785 44.9541 80.4984 44.308 83.5267 44.308C85.3154 44.308 86.4635 44.4466 88.115 44.9084V51.241C86.7381 50.6406 85.2711 50.4548 83.8027 50.4548C83.1149 50.4548 82.38 50.5477 81.6007 50.7321V65.4301H81.5993Z" fill="#2D2246"/>
<path id="Vector_4" d="M151.45 65.4301H144.935V46.1563C147.229 44.9541 150.349 44.308 153.377 44.308C155.166 44.308 156.314 44.4466 157.965 44.9084V51.241C156.588 50.6406 155.121 50.4548 153.653 50.4548C152.965 50.4548 152.23 50.5477 151.451 50.7321V65.4301H151.45Z" fill="#2D2246"/>
<path id="Vector_5" d="M131.692 44.168C137.886 44.168 142.657 48.5593 142.657 55.0292C142.657 61.4991 137.886 65.8905 131.692 65.8905C125.498 65.8905 120.772 61.4991 120.772 55.0292C120.772 48.5593 125.544 44.168 131.692 44.168ZM131.692 49.8073C129.168 49.8073 127.334 51.7485 127.334 55.0306C127.334 58.3127 129.168 60.254 131.692 60.254C134.215 60.254 136.096 58.3127 136.096 55.0306C136.096 51.7485 134.261 49.8073 131.692 49.8073Z" fill="#2D2246"/>
<path id="Vector_6" d="M180.249 64.8284C177.68 65.5217 174.24 65.8919 171.257 65.8919C164.101 65.8919 159.421 62.1023 159.421 55.0764C159.421 48.6523 163.55 44.168 170.11 44.168C171.487 44.168 172.863 44.3524 173.735 44.7226V34H180.249V64.8284ZM173.735 50.5006C172.909 50.0846 171.899 49.9002 170.707 49.9002C167.817 49.9002 166.027 51.7485 166.027 54.8462C166.027 58.3585 168.046 60.2997 171.486 60.2997C171.991 60.2997 172.954 60.254 173.734 60.1153V50.502L173.735 50.5006Z" fill="#2D2246"/>
<g id="Group">
<path id="Vector_7" d="M189.042 65.4302H182.528V44.3066H189.042V65.4288V65.4302Z" fill="#2D2246"/>
<path id="Vector_8" d="M189.042 40.5143H182.528V34H189.042V40.5143Z" fill="#2D2246"/>
</g>
<path id="Vector_9" d="M97.1709 40.5143H90.6566V34H97.1709V40.5143Z" fill="#2D2246"/>
<path id="Vector_10" d="M222 65.4302H215.486V34H222V65.4302Z" fill="#2D2246"/>
<path id="Vector_11" d="M97.3262 44.3066H90.6871V62.3769C90.6871 62.3769 90.6871 62.3907 90.6871 62.3977C90.6871 64.2308 92.1736 65.7172 94.0067 65.7172C95.8398 65.7172 97.3262 64.2308 97.3262 62.3977C97.3262 62.3907 97.3262 62.3838 97.3262 62.3769V44.3066Z" fill="#2D2246"/>
<path id="Vector_12" d="M116.974 44.9487C116.819 44.835 116.059 44.254 114.89 44.2595C114.481 44.2554 113.615 44.3386 112.799 44.9542C112.473 45.201 112.089 45.5851 111.818 46.0885C111.764 46.1883 111.715 46.2895 111.671 46.3949L108.032 54.8698V51.2494C108.032 49.3193 106.468 47.7552 104.538 47.7552C103.09 47.7552 101.848 48.6357 101.317 49.8905L96.8936 60.193C96.253 59.4068 95.2768 58.9049 94.1842 58.9049C92.254 58.9049 90.6899 60.469 90.6899 62.3991C90.6899 64.3293 92.254 65.8934 94.1842 65.8934C95.6443 65.8934 96.8964 64.9962 97.4177 63.7233L101.044 55.2803V58.9035C101.044 60.8336 102.608 62.3977 104.538 62.3977C105.999 62.3977 107.25 61.5006 107.773 60.2263L111.397 51.7846V62.3963C111.402 63.7594 112.152 64.8132 113.042 65.3609C113.62 65.7173 114.223 65.8823 114.892 65.8906C115.525 65.8934 116.509 65.7075 117.345 64.8853C118.081 64.1615 118.386 63.2394 118.386 62.3963V47.7524C118.376 45.9651 117.145 45.0707 116.976 44.9473L116.974 44.9487Z" fill="url(#paint0_linear_107_7080)"/>
</g>
</g>
<g id="For Artist //">
<path d="M428.748 59H425.045V45.28H435.412V48.3289H428.748V50.964H433.756V53.9693H428.748V59ZM438.635 54.1436C438.635 55.6027 439.158 56.6044 440.399 56.6044C441.619 56.6044 442.163 55.6027 442.163 54.1436C442.163 52.6844 441.619 51.6827 440.399 51.6827C439.158 51.6827 438.635 52.6844 438.635 54.1436ZM445.713 54.1436C445.713 57.1707 443.557 59.2613 440.399 59.2613C437.22 59.2613 435.085 57.1707 435.085 54.1436C435.085 51.1382 437.22 49.0258 440.399 49.0258C443.557 49.0258 445.713 51.1382 445.713 54.1436ZM454.431 49.396L454.213 52.728C453.734 52.4449 453.211 52.3142 452.536 52.3142C451.23 52.3142 450.424 52.924 450.424 54.5573V59H446.896V49.2871H450.424V51.0076C450.772 49.9187 451.796 49.0258 453.081 49.0258C453.669 49.0258 454.191 49.2 454.431 49.396ZM463.516 45.28H467.654L473.12 59H469.178L468.155 56.3431H462.797L461.774 59H458.05L463.516 45.28ZM465.433 49.5267L463.865 53.5773H467.088L465.52 49.5267H465.433ZM481.404 49.396L481.186 52.728C480.707 52.4449 480.184 52.3142 479.509 52.3142C478.203 52.3142 477.397 52.924 477.397 54.5573V59H473.869V49.2871H477.397V51.0076C477.745 49.9187 478.769 49.0258 480.054 49.0258C480.642 49.0258 481.164 49.2 481.404 49.396ZM483.059 56.2996V51.7262H481.753V49.5484L482.471 49.4396C483.451 49.2871 483.756 48.7644 483.996 47.8716L484.323 46.6084H486.544V49.2871H489.07V51.7262H486.544V55.276C486.544 56.1036 486.936 56.4302 487.655 56.4302C488.09 56.4302 488.569 56.3431 489.157 56.1036V58.3902C488.417 58.9347 487.567 59.2613 486.239 59.2613C484.606 59.2613 483.059 58.5862 483.059 56.2996ZM490.298 49.2871H493.826V59H490.298V49.2871ZM490.277 48.3724V45.28H493.848V48.3724H490.277ZM494.828 55.8422L497.899 55.7987C498.029 56.6044 498.683 57.0618 499.75 57.0618C500.534 57.0618 500.948 56.7787 500.948 56.3867C500.948 56.0164 500.73 55.7551 500.055 55.6462L498.617 55.4284C496.265 55.0582 495.024 54.296 495.024 52.3142C495.024 50.3978 496.701 49.0258 499.423 49.0258C502.233 49.0258 503.888 50.2671 504.084 52.2924L501.187 52.3796C501.057 51.6827 500.447 51.2471 499.358 51.2471C498.683 51.2471 498.291 51.5084 498.291 51.944C498.291 52.2707 498.552 52.4449 498.879 52.4884L500.773 52.8151C502.951 53.1636 504.214 54.1436 504.214 56.0382C504.214 58.0853 502.472 59.2613 499.706 59.2613C497.028 59.2613 495.024 58.1942 494.828 55.8422ZM505.694 56.2996V51.7262H504.387V49.5484L505.106 49.4396C506.086 49.2871 506.391 48.7644 506.63 47.8716L506.957 46.6084H509.178V49.2871H511.705V51.7262H509.178V55.276C509.178 56.1036 509.57 56.4302 510.289 56.4302C510.725 56.4302 511.204 56.3431 511.792 56.1036V58.3902C511.051 58.9347 510.202 59.2613 508.873 59.2613C507.24 59.2613 505.694 58.5862 505.694 56.2996Z" fill="#9980FF"/>
<path d="M515.234 60.8076L520.461 44.6484H523.706L518.479 60.8076H515.234ZM520.44 60.8076L525.667 44.6484H528.911L523.685 60.8076H520.44Z" fill="#7E44F3"/>
</g>
<g id="For Investors //">
<path d="M560.748 59H557.045V45.28H567.412V48.3289H560.748V50.964H565.756V53.9693H560.748V59ZM570.635 54.1436C570.635 55.6027 571.158 56.6044 572.399 56.6044C573.619 56.6044 574.163 55.6027 574.163 54.1436C574.163 52.6844 573.619 51.6827 572.399 51.6827C571.158 51.6827 570.635 52.6844 570.635 54.1436ZM577.713 54.1436C577.713 57.1707 575.557 59.2613 572.399 59.2613C569.22 59.2613 567.085 57.1707 567.085 54.1436C567.085 51.1382 569.22 49.0258 572.399 49.0258C575.557 49.0258 577.713 51.1382 577.713 54.1436ZM586.431 49.396L586.213 52.728C585.734 52.4449 585.211 52.3142 584.536 52.3142C583.23 52.3142 582.424 52.924 582.424 54.5573V59H578.896V49.2871H582.424V51.0076C582.772 49.9187 583.796 49.0258 585.081 49.0258C585.669 49.0258 586.191 49.2 586.431 49.396ZM591.095 45.28H594.797V59H591.095V45.28ZM600.103 54.2307V59H596.575V49.2871H600.103V50.7462C600.626 49.6791 601.78 49.0258 603.239 49.0258C605.896 49.0258 606.745 50.8769 606.745 52.9022V59H603.217V53.8387C603.217 52.5102 602.847 51.8133 601.78 51.8133C600.582 51.8133 600.103 52.7716 600.103 54.2307ZM615.041 59H610.838L607.223 49.2871H610.925L613.037 55.3196H613.124L615.237 49.2871H618.656L615.041 59ZM625.989 55.5373L628.82 55.7987C628.319 58.02 626.533 59.2613 623.964 59.2613C620.849 59.2613 618.628 57.3884 618.628 54.296C618.628 51.2253 620.893 49.0258 623.92 49.0258C627.165 49.0258 628.885 51.2471 628.885 53.8822V54.8622H622.069C622.156 56.06 623.027 56.6262 624.094 56.6262C625.053 56.6262 625.662 56.2996 625.989 55.5373ZM622.113 53.1636H625.532C625.488 52.2924 624.922 51.552 623.877 51.552C622.744 51.552 622.243 52.2489 622.113 53.1636ZM629.401 55.8422L632.472 55.7987C632.603 56.6044 633.256 57.0618 634.323 57.0618C635.107 57.0618 635.521 56.7787 635.521 56.3867C635.521 56.0164 635.303 55.7551 634.628 55.6462L633.191 55.4284C630.839 55.0582 629.597 54.296 629.597 52.3142C629.597 50.3978 631.274 49.0258 633.997 49.0258C636.806 49.0258 638.461 50.2671 638.657 52.2924L635.761 52.3796C635.63 51.6827 635.02 51.2471 633.931 51.2471C633.256 51.2471 632.864 51.5084 632.864 51.944C632.864 52.2707 633.125 52.4449 633.452 52.4884L635.347 52.8151C637.525 53.1636 638.788 54.1436 638.788 56.0382C638.788 58.0853 637.045 59.2613 634.28 59.2613C631.601 59.2613 629.597 58.1942 629.401 55.8422ZM640.267 56.2996V51.7262H638.961V49.5484L639.679 49.4396C640.659 49.2871 640.964 48.7644 641.204 47.8716L641.53 46.6084H643.752V49.2871H646.278V51.7262H643.752V55.276C643.752 56.1036 644.144 56.4302 644.862 56.4302C645.298 56.4302 645.777 56.3431 646.365 56.1036V58.3902C645.625 58.9347 644.775 59.2613 643.447 59.2613C641.813 59.2613 640.267 58.5862 640.267 56.2996ZM650.533 54.1436C650.533 55.6027 651.056 56.6044 652.297 56.6044C653.517 56.6044 654.061 55.6027 654.061 54.1436C654.061 52.6844 653.517 51.6827 652.297 51.6827C651.056 51.6827 650.533 52.6844 650.533 54.1436ZM657.611 54.1436C657.611 57.1707 655.455 59.2613 652.297 59.2613C649.118 59.2613 646.983 57.1707 646.983 54.1436C646.983 51.1382 649.118 49.0258 652.297 49.0258C655.455 49.0258 657.611 51.1382 657.611 54.1436ZM666.329 49.396L666.111 52.728C665.632 52.4449 665.11 52.3142 664.434 52.3142C663.128 52.3142 662.322 52.924 662.322 54.5573V59H658.794V49.2871H662.322V51.0076C662.67 49.9187 663.694 49.0258 664.979 49.0258C665.567 49.0258 666.09 49.2 666.329 49.396ZM666.514 55.8422L669.585 55.7987C669.715 56.6044 670.369 57.0618 671.436 57.0618C672.22 57.0618 672.633 56.7787 672.633 56.3867C672.633 56.0164 672.416 55.7551 671.741 55.6462L670.303 55.4284C667.951 55.0582 666.71 54.296 666.71 52.3142C666.71 50.3978 668.387 49.0258 671.109 49.0258C673.918 49.0258 675.573 50.2671 675.769 52.2924L672.873 52.3796C672.742 51.6827 672.133 51.2471 671.044 51.2471C670.369 51.2471 669.977 51.5084 669.977 51.944C669.977 52.2707 670.238 52.4449 670.565 52.4884L672.459 52.8151C674.637 53.1636 675.9 54.1436 675.9 56.0382C675.9 58.0853 674.158 59.2613 671.392 59.2613C668.713 59.2613 666.71 58.1942 666.514 55.8422Z" fill="#9980FF"/>
<path d="M679.333 60.8076L684.559 44.6484H687.804L682.578 60.8076H679.333ZM684.538 60.8076L689.765 44.6484H693.01L687.783 60.8076H684.538Z" fill="#7E44F3"/>
</g>
<g id="For Industry Professionals //">
<path d="M725.748 59H722.045V45.28H732.412V48.3289H725.748V50.964H730.756V53.9693H725.748V59ZM735.635 54.1436C735.635 55.6027 736.158 56.6044 737.399 56.6044C738.619 56.6044 739.163 55.6027 739.163 54.1436C739.163 52.6844 738.619 51.6827 737.399 51.6827C736.158 51.6827 735.635 52.6844 735.635 54.1436ZM742.713 54.1436C742.713 57.1707 740.557 59.2613 737.399 59.2613C734.22 59.2613 732.085 57.1707 732.085 54.1436C732.085 51.1382 734.22 49.0258 737.399 49.0258C740.557 49.0258 742.713 51.1382 742.713 54.1436ZM751.431 49.396L751.213 52.728C750.734 52.4449 750.211 52.3142 749.536 52.3142C748.23 52.3142 747.424 52.924 747.424 54.5573V59H743.896V49.2871H747.424V51.0076C747.772 49.9187 748.796 49.0258 750.081 49.0258C750.669 49.0258 751.191 49.2 751.431 49.396ZM756.095 45.28H759.797V59H756.095V45.28ZM765.103 54.2307V59H761.575V49.2871H765.103V50.7462C765.626 49.6791 766.78 49.0258 768.239 49.0258C770.896 49.0258 771.745 50.8769 771.745 52.9022V59H768.217V53.8387C768.217 52.5102 767.847 51.8133 766.78 51.8133C765.582 51.8133 765.103 52.7716 765.103 54.2307ZM780.3 54.2089V54.0782C780.3 52.6844 779.537 51.7698 778.361 51.7698C776.968 51.7698 776.358 52.7498 776.358 54.1436C776.358 55.5591 776.968 56.5391 778.361 56.5391C779.537 56.5391 780.3 55.6244 780.3 54.2089ZM780.3 59V57.3449C779.842 58.4773 778.732 59.2613 777.12 59.2613C774.245 59.2613 772.808 57.0182 772.808 54.1436C772.808 51.2907 774.245 49.0258 777.12 49.0258C778.732 49.0258 779.842 49.8098 780.3 50.964V45.28H783.828V59H780.3ZM791.936 54.0564V49.2871H795.464V59H791.936V57.5409C791.413 58.6298 790.346 59.2613 788.887 59.2613C786.23 59.2613 785.424 57.432 785.424 55.4067V49.2871H788.952V54.4702C788.952 55.7769 789.323 56.4956 790.39 56.4956C791.5 56.4956 791.936 55.5373 791.936 54.0564ZM796.464 55.8422L799.535 55.7987C799.666 56.6044 800.319 57.0618 801.386 57.0618C802.17 57.0618 802.584 56.7787 802.584 56.3867C802.584 56.0164 802.366 55.7551 801.691 55.6462L800.254 55.4284C797.902 55.0582 796.66 54.296 796.66 52.3142C796.66 50.3978 798.337 49.0258 801.06 49.0258C803.869 49.0258 805.524 50.2671 805.72 52.2924L802.824 52.3796C802.693 51.6827 802.083 51.2471 800.994 51.2471C800.319 51.2471 799.927 51.5084 799.927 51.944C799.927 52.2707 800.188 52.4449 800.515 52.4884L802.41 52.8151C804.588 53.1636 805.851 54.1436 805.851 56.0382C805.851 58.0853 804.108 59.2613 801.343 59.2613C798.664 59.2613 796.66 58.1942 796.464 55.8422ZM807.33 56.2996V51.7262H806.024V49.5484L806.742 49.4396C807.722 49.2871 808.027 48.7644 808.267 47.8716L808.593 46.6084H810.815V49.2871H813.341V51.7262H810.815V55.276C810.815 56.1036 811.207 56.4302 811.925 56.4302C812.361 56.4302 812.84 56.3431 813.428 56.1036V58.3902C812.688 58.9347 811.838 59.2613 810.51 59.2613C808.876 59.2613 807.33 58.5862 807.33 56.2996ZM822.104 49.396L821.886 52.728C821.407 52.4449 820.885 52.3142 820.21 52.3142C818.903 52.3142 818.097 52.924 818.097 54.5573V59H814.569V49.2871H818.097V51.0076C818.446 49.9187 819.469 49.0258 820.754 49.0258C821.342 49.0258 821.865 49.2 822.104 49.396ZM828.229 62.4844H824.767L826.16 59.1307L822.197 49.2871H825.899L828.055 54.9711H828.142L830.342 49.2871H833.804L828.229 62.4844ZM841.971 51.748H844.148C845.804 51.748 846.435 51.16 846.435 50.0058C846.435 48.8516 845.804 48.2418 844.148 48.2418H841.971V51.748ZM841.971 54.7098V59H838.29V45.28H844.323C847.916 45.28 850.007 46.9569 850.007 49.984C850.007 53.0329 847.916 54.7098 844.323 54.7098H841.971ZM858.43 49.396L858.212 52.728C857.733 52.4449 857.21 52.3142 856.535 52.3142C855.228 52.3142 854.423 52.924 854.423 54.5573V59H850.895V49.2871H854.423V51.0076C854.771 49.9187 855.795 49.0258 857.079 49.0258C857.667 49.0258 858.19 49.2 858.43 49.396ZM862.168 54.1436C862.168 55.6027 862.691 56.6044 863.932 56.6044C865.152 56.6044 865.696 55.6027 865.696 54.1436C865.696 52.6844 865.152 51.6827 863.932 51.6827C862.691 51.6827 862.168 52.6844 862.168 54.1436ZM869.246 54.1436C869.246 57.1707 867.09 59.2613 863.932 59.2613C860.753 59.2613 858.619 57.1707 858.619 54.1436C858.619 51.1382 860.753 49.0258 863.932 49.0258C867.09 49.0258 869.246 51.1382 869.246 54.1436ZM870.821 51.7262H869.427V49.2871H870.821V48.8733C870.821 46.3471 872.389 45.0187 874.719 45.0187C876.549 45.0187 877.812 45.9333 878.204 47.5449L876.048 48.22C875.83 47.7844 875.569 47.5449 875.111 47.5449C874.523 47.5449 874.306 48.024 874.306 48.6338V49.2871H876.766V51.7262H874.306V59H870.821V51.7262ZM884.174 55.5373L887.005 55.7987C886.504 58.02 884.719 59.2613 882.149 59.2613C879.035 59.2613 876.813 57.3884 876.813 54.296C876.813 51.2253 879.078 49.0258 882.105 49.0258C885.35 49.0258 887.071 51.2471 887.071 53.8822V54.8622H880.254C880.341 56.06 881.212 56.6262 882.279 56.6262C883.238 56.6262 883.847 56.2996 884.174 55.5373ZM880.298 53.1636H883.717C883.673 52.2924 883.107 51.552 882.062 51.552C880.929 51.552 880.428 52.2489 880.298 53.1636ZM887.587 55.8422L890.657 55.7987C890.788 56.6044 891.441 57.0618 892.508 57.0618C893.292 57.0618 893.706 56.7787 893.706 56.3867C893.706 56.0164 893.488 55.7551 892.813 55.6462L891.376 55.4284C889.024 55.0582 887.783 54.296 887.783 52.3142C887.783 50.3978 889.459 49.0258 892.182 49.0258C894.991 49.0258 896.646 50.2671 896.842 52.2924L893.946 52.3796C893.815 51.6827 893.205 51.2471 892.116 51.2471C891.441 51.2471 891.049 51.5084 891.049 51.944C891.049 52.2707 891.311 52.4449 891.637 52.4884L893.532 52.8151C895.71 53.1636 896.973 54.1436 896.973 56.0382C896.973 58.0853 895.231 59.2613 892.465 59.2613C889.786 59.2613 887.783 58.1942 887.587 55.8422ZM897.407 55.8422L900.478 55.7987C900.608 56.6044 901.262 57.0618 902.329 57.0618C903.113 57.0618 903.527 56.7787 903.527 56.3867C903.527 56.0164 903.309 55.7551 902.634 55.6462L901.196 55.4284C898.844 55.0582 897.603 54.296 897.603 52.3142C897.603 50.3978 899.28 49.0258 902.002 49.0258C904.811 49.0258 906.467 50.2671 906.663 52.2924L903.766 52.3796C903.635 51.6827 903.026 51.2471 901.937 51.2471C901.262 51.2471 900.87 51.5084 900.87 51.944C900.87 52.2707 901.131 52.4449 901.458 52.4884L903.352 52.8151C905.53 53.1636 906.793 54.1436 906.793 56.0382C906.793 58.0853 905.051 59.2613 902.285 59.2613C899.607 59.2613 897.603 58.1942 897.407 55.8422ZM907.924 49.2871H911.452V59H907.924V49.2871ZM907.903 48.3724V45.28H911.474V48.3724H907.903ZM916.178 54.1436C916.178 55.6027 916.701 56.6044 917.942 56.6044C919.162 56.6044 919.706 55.6027 919.706 54.1436C919.706 52.6844 919.162 51.6827 917.942 51.6827C916.701 51.6827 916.178 52.6844 916.178 54.1436ZM923.256 54.1436C923.256 57.1707 921.1 59.2613 917.942 59.2613C914.763 59.2613 912.628 57.1707 912.628 54.1436C912.628 51.1382 914.763 49.0258 917.942 49.0258C921.1 49.0258 923.256 51.1382 923.256 54.1436ZM927.967 54.2307V59H924.439V49.2871H927.967V50.7462C928.489 49.6791 929.644 49.0258 931.103 49.0258C933.76 49.0258 934.609 50.8769 934.609 52.9022V59H931.081V53.8387C931.081 52.5102 930.711 51.8133 929.644 51.8133C928.446 51.8133 927.967 52.7716 927.967 54.2307ZM941.813 54.9493V54.7969L940.376 55.0582C939.527 55.2324 939.026 55.4938 939.026 56.1253C939.026 56.6262 939.418 56.9529 940.006 56.9529C941.007 56.9529 941.813 56.2124 941.813 54.9493ZM945.276 52.8369V56.1471C945.276 56.648 945.494 56.8658 945.864 56.8658C946.147 56.8658 946.365 56.8222 946.648 56.7133V58.5862C946.147 58.9347 945.45 59.2178 944.448 59.2178C943.251 59.2178 942.314 58.608 941.987 57.4973C941.421 58.6298 940.311 59.2178 938.764 59.2178C936.87 59.2178 935.628 58.2378 935.628 56.5827C935.628 54.7098 936.979 53.904 939.091 53.5338L941.813 53.0764V52.924C941.813 52.1182 941.443 51.6391 940.594 51.6391C939.81 51.6391 939.418 52.14 939.265 52.8587L935.999 52.6409C936.303 50.5067 937.893 49.0258 940.811 49.0258C943.381 49.0258 945.276 50.1364 945.276 52.8369ZM947.461 45.28H950.989V59H947.461V45.28ZM951.991 55.8422L955.062 55.7987C955.192 56.6044 955.846 57.0618 956.913 57.0618C957.697 57.0618 958.111 56.7787 958.111 56.3867C958.111 56.0164 957.893 55.7551 957.218 55.6462L955.78 55.4284C953.428 55.0582 952.187 54.296 952.187 52.3142C952.187 50.3978 953.864 49.0258 956.586 49.0258C959.395 49.0258 961.051 50.2671 961.247 52.2924L958.35 52.3796C958.219 51.6827 957.61 51.2471 956.521 51.2471C955.846 51.2471 955.454 51.5084 955.454 51.944C955.454 52.2707 955.715 52.4449 956.042 52.4884L957.936 52.8151C960.114 53.1636 961.377 54.1436 961.377 56.0382C961.377 58.0853 959.635 59.2613 956.869 59.2613C954.191 59.2613 952.187 58.1942 951.991 55.8422Z" fill="#9980FF"/>
<path d="M964.81 60.8076L970.037 44.6484H973.281L968.055 60.8076H964.81ZM970.015 60.8076L975.242 44.6484H978.487L973.26 60.8076H970.015Z" fill="#7E44F3"/>
</g>
<rect id="Rectangle 187" x="1050" y="37" width="180" height="30" rx="3" fill="#9980FF"/>
<path id="Contact us" d="M1099.14 46.7979C1099.85 46.7979 1100.46 46.8937 1100.96 47.0851C1101.46 47.2718 1101.92 47.5374 1102.34 47.8821L1101.18 49.2749C1100.91 49.0499 1100.61 48.8728 1100.27 48.7436C1099.94 48.6096 1099.59 48.5426 1099.2 48.5426C1098.78 48.5426 1098.4 48.6622 1098.06 48.9015C1097.71 49.1361 1097.44 49.5094 1097.23 50.0215C1097.02 50.5289 1096.92 51.1894 1096.92 52.0031C1096.92 53.1997 1097.14 54.0708 1097.57 54.6164C1098 55.1573 1098.56 55.4277 1099.24 55.4277C1099.74 55.4277 1100.15 55.3344 1100.48 55.1477C1100.81 54.961 1101.12 54.7576 1101.39 54.5374L1102.46 55.9015C1102.09 56.2701 1101.63 56.586 1101.09 56.8492C1100.54 57.1125 1099.88 57.2441 1099.11 57.2441C1098.21 57.2441 1097.41 57.0455 1096.71 56.6482C1096.02 56.2462 1095.47 55.6574 1095.08 54.8821C1094.68 54.1019 1094.49 53.1422 1094.49 52.0031C1094.49 50.8926 1094.69 49.9497 1095.1 49.1744C1095.51 48.399 1096.07 47.8103 1096.77 47.4082C1097.47 47.0014 1098.26 46.7979 1099.14 46.7979ZM1106.92 49.1241C1107.71 49.1241 1108.37 49.2916 1108.92 49.6267C1109.47 49.9617 1109.9 50.4332 1110.19 51.041C1110.48 51.6441 1110.63 52.3525 1110.63 53.1662C1110.63 54.4393 1110.3 55.4373 1109.65 56.16C1109 56.8827 1108.09 57.2441 1106.92 57.2441C1105.75 57.2441 1104.84 56.8875 1104.19 56.1744C1103.54 55.4612 1103.22 54.4632 1103.22 53.1805C1103.22 52.3716 1103.36 51.6632 1103.65 51.0554C1103.95 50.4475 1104.37 49.9737 1104.93 49.6338C1105.48 49.294 1106.15 49.1241 1106.92 49.1241ZM1106.92 50.7969C1106.46 50.7969 1106.11 50.9884 1105.89 51.3713C1105.67 51.7494 1105.56 52.3525 1105.56 53.1805C1105.56 54.0229 1105.67 54.6332 1105.89 55.0113C1106.11 55.3894 1106.46 55.5785 1106.92 55.5785C1107.39 55.5785 1107.73 55.3894 1107.95 55.0113C1108.17 54.6332 1108.29 54.0181 1108.29 53.1662C1108.29 52.3429 1108.17 51.7422 1107.95 51.3641C1107.73 50.986 1107.39 50.7969 1106.92 50.7969ZM1112.23 57V49.3754H1114.21L1114.37 50.2585C1114.71 49.8756 1115.07 49.5908 1115.45 49.4041C1115.83 49.2174 1116.26 49.1241 1116.74 49.1241C1117.39 49.1241 1117.9 49.3227 1118.28 49.72C1118.65 50.1173 1118.84 50.6773 1118.84 51.4V57H1116.57V52.0533C1116.57 51.5843 1116.52 51.2588 1116.41 51.0769C1116.31 50.8903 1116.12 50.7969 1115.84 50.7969C1115.6 50.7969 1115.37 50.8735 1115.15 51.0267C1114.93 51.1798 1114.72 51.3928 1114.5 51.6656V57H1112.23ZM1127.71 56.5549C1127.41 56.7463 1127.05 56.9091 1126.63 57.0431C1126.21 57.1771 1125.74 57.2441 1125.21 57.2441C1124.21 57.2441 1123.48 56.9904 1122.99 56.4831C1122.51 55.9709 1122.27 55.2769 1122.27 54.401V50.9405H1120.67V49.3754H1122.27V47.7241L1124.54 47.4513V49.3754H1126.99L1126.77 50.9405H1124.54V54.401C1124.54 54.7791 1124.62 55.0496 1124.79 55.2123C1124.97 55.375 1125.24 55.4564 1125.62 55.4564C1125.89 55.4564 1126.13 55.4253 1126.35 55.3631C1126.58 55.2961 1126.78 55.2123 1126.95 55.1118L1127.71 56.5549ZM1135.88 54.8031C1135.88 55.0903 1135.92 55.2985 1135.99 55.4277C1136.07 55.5569 1136.2 55.655 1136.38 55.7221L1135.91 57.2154C1135.46 57.1723 1135.08 57.0742 1134.77 56.921C1134.46 56.7631 1134.22 56.5262 1134.05 56.2103C1133.75 56.5597 1133.38 56.8205 1132.93 56.9928C1132.47 57.1603 1132.01 57.2441 1131.53 57.2441C1130.75 57.2441 1130.12 57.0215 1129.65 56.5764C1129.19 56.1265 1128.96 55.5497 1128.96 54.8462C1128.96 54.0181 1129.28 53.3791 1129.92 52.9292C1130.58 52.4793 1131.49 52.2544 1132.67 52.2544H1133.69V51.9672C1133.69 51.187 1133.19 50.7969 1132.19 50.7969C1131.94 50.7969 1131.63 50.8328 1131.25 50.9046C1130.86 50.9716 1130.48 51.0697 1130.1 51.199L1129.57 49.6913C1130.07 49.5046 1130.58 49.3634 1131.11 49.2677C1131.65 49.172 1132.12 49.1241 1132.55 49.1241C1133.68 49.1241 1134.52 49.3562 1135.06 49.8205C1135.6 50.28 1135.88 50.9453 1135.88 51.8164V54.8031ZM1132.32 55.6215C1132.56 55.6215 1132.82 55.5497 1133.08 55.4062C1133.35 55.2578 1133.56 55.0496 1133.69 54.7815V53.5467H1133.13C1132.5 53.5467 1132.04 53.6448 1131.74 53.841C1131.44 54.0325 1131.3 54.3149 1131.3 54.6882C1131.3 54.9802 1131.38 55.2099 1131.56 55.3774C1131.74 55.5402 1132 55.6215 1132.32 55.6215ZM1142.11 55.4564C1142.42 55.4564 1142.72 55.3966 1142.99 55.2769C1143.27 55.1525 1143.54 54.9945 1143.82 54.8031L1144.83 56.239C1144.49 56.5262 1144.08 56.7655 1143.6 56.9569C1143.12 57.1484 1142.59 57.2441 1141.99 57.2441C1141.17 57.2441 1140.47 57.0766 1139.88 56.7415C1139.29 56.4017 1138.84 55.9326 1138.52 55.3344C1138.21 54.7313 1138.05 54.0325 1138.05 53.2379C1138.05 52.4434 1138.21 51.7374 1138.53 51.12C1138.86 50.4978 1139.32 50.0096 1139.91 49.6554C1140.51 49.3012 1141.22 49.1241 1142.03 49.1241C1142.61 49.1241 1143.13 49.2055 1143.58 49.3682C1144.03 49.5262 1144.45 49.7631 1144.83 50.079L1143.84 51.4431C1143.59 51.2612 1143.31 51.12 1143.03 51.0195C1142.74 50.919 1142.44 50.8687 1142.13 50.8687C1141.62 50.8687 1141.2 51.0506 1140.89 51.4144C1140.57 51.7733 1140.42 52.3812 1140.42 53.2379C1140.42 53.7979 1140.49 54.2407 1140.64 54.5662C1140.79 54.8868 1140.99 55.1166 1141.24 55.2554C1141.5 55.3894 1141.79 55.4564 1142.11 55.4564ZM1153.55 56.5549C1153.25 56.7463 1152.89 56.9091 1152.47 57.0431C1152.05 57.1771 1151.58 57.2441 1151.05 57.2441C1150.05 57.2441 1149.31 56.9904 1148.83 56.4831C1148.35 55.9709 1148.11 55.2769 1148.11 54.401V50.9405H1146.51V49.3754H1148.11V47.7241L1150.38 47.4513V49.3754H1152.83L1152.61 50.9405H1150.38V54.401C1150.38 54.7791 1150.46 55.0496 1150.63 55.2123C1150.81 55.375 1151.08 55.4564 1151.46 55.4564C1151.73 55.4564 1151.97 55.4253 1152.19 55.3631C1152.42 55.2961 1152.62 55.2123 1152.79 55.1118L1153.55 56.5549ZM1166.18 49.3754V54.5949C1166.18 54.9634 1166.25 55.2171 1166.38 55.3559C1166.52 55.4947 1166.71 55.5641 1166.96 55.5641C1167.19 55.5641 1167.42 55.4899 1167.66 55.3415C1167.89 55.1932 1168.09 54.9921 1168.25 54.7385V49.3754H1170.52V57H1168.53L1168.43 56.1097C1168.18 56.4831 1167.84 56.7655 1167.41 56.9569C1166.99 57.1484 1166.55 57.2441 1166.09 57.2441C1165.36 57.2441 1164.81 57.0311 1164.45 56.6051C1164.09 56.1744 1163.91 55.5976 1163.91 54.8749V49.3754H1166.18ZM1175.58 55.6215C1175.96 55.6215 1176.27 55.5617 1176.49 55.4421C1176.73 55.3224 1176.85 55.1429 1176.85 54.9036C1176.85 54.7409 1176.8 54.6044 1176.71 54.4944C1176.62 54.3843 1176.44 54.279 1176.19 54.1785C1175.93 54.0779 1175.54 53.9583 1175.04 53.8195C1174.34 53.6328 1173.77 53.3648 1173.33 53.0154C1172.89 52.666 1172.68 52.1538 1172.68 51.479C1172.68 50.7993 1172.96 50.2369 1173.52 49.7918C1174.09 49.3467 1174.91 49.1241 1175.99 49.1241C1176.66 49.1241 1177.26 49.2126 1177.76 49.3897C1178.27 49.5621 1178.7 49.7822 1179.07 50.0503L1178.17 51.3856C1177.85 51.1894 1177.51 51.0338 1177.15 50.919C1176.78 50.7993 1176.42 50.7395 1176.05 50.7395C1175.32 50.7395 1174.96 50.9357 1174.96 51.3282C1174.96 51.4574 1175 51.5699 1175.09 51.6656C1175.19 51.7566 1175.37 51.8523 1175.63 51.9528C1175.88 52.0485 1176.26 52.1682 1176.76 52.3118C1177.25 52.4506 1177.68 52.6109 1178.05 52.7928C1178.41 52.9747 1178.7 53.2188 1178.9 53.5251C1179.1 53.8267 1179.2 54.2263 1179.2 54.7241C1179.2 55.2793 1179.04 55.746 1178.71 56.1241C1178.38 56.4974 1177.94 56.7774 1177.39 56.9641C1176.85 57.1508 1176.25 57.2441 1175.6 57.2441C1174.86 57.2441 1174.21 57.1388 1173.64 56.9282C1173.08 56.7176 1172.6 56.44 1172.2 56.0954L1173.34 54.8174C1173.64 55.0472 1173.97 55.2386 1174.35 55.3918C1174.73 55.545 1175.14 55.6215 1175.58 55.6215Z" fill="white"/>
</g>
<defs>
<linearGradient id="paint0_linear_107_7080" x1="115.215" y1="43.9046" x2="100.201" y2="69.9076" gradientUnits="userSpaceOnUse">
<stop offset="0.21" stop-color="#9980FF"/>
<stop offset="1" stop-color="#6BD5D5"/>
</linearGradient>
<clipPath id="clip0_107_7080">
<rect width="172" height="31.8919" fill="white" transform="translate(50 34)"/>
</clipPath>
</defs>
</svg>
